<svg xmlns="http://www.w3.org/2000/svg" width="240" height="280" viewBox="0 0 240 280">
  <defs>
    <linearGradient id="bodyG2" x1="0" y1="0" x2="0.4" y2="1">
      <stop offset="0" stop-color="#ff6ba3"/>
      <stop offset="1" stop-color="#e02970"/>
    </linearGradient>
    <linearGradient id="innerG2" x1="0" y1="0" x2="0" y2="1">
      <stop offset="0" stop-color="#ffd2e3"/>
      <stop offset="1" stop-color="#ff9cc2"/>
    </linearGradient>
  </defs>

  <ellipse cx="120" cy="262" rx="62" ry="10" fill="#0d0d12" opacity=".08"/>

  <!-- linker Arm in die Hüfte -->
  <path d="M64 158 C 50 168 46 184 52 196" stroke="#e02970" stroke-width="17" stroke-linecap="round" fill="none"/>

  <!-- Flammenkörper -->
  <path d="M120 24
           C 127 50 146 64 160 86
           C 175 110 187 134 187 164
           C 187 216 157 252 120 252
           C 83 252 53 216 53 164
           C 53 134 65 110 80 86
           C 94 64 113 50 120 24 Z"
        fill="url(#bodyG2)"/>
  <path d="M158 60 C 166 70 176 74 178 88 C 170 84 162 78 158 60 Z" fill="#ff6ba3"/>

  <path d="M120 84
           C 134 106 156 124 156 162
           C 156 198 140 224 120 224
           C 100 224 84 198 84 162
           C 84 124 106 106 120 84 Z"
        fill="url(#innerG2)"/>

  <!-- fröhlich zugekniffene Augen -->
  <path d="M94 150 Q104 140 114 150" stroke="#0d0d12" stroke-width="5" stroke-linecap="round" fill="none"/>
  <path d="M126 150 Q136 140 146 150" stroke="#0d0d12" stroke-width="5" stroke-linecap="round" fill="none"/>

  <circle cx="90" cy="172" r="7" fill="#fb4d8c" opacity=".45"/>
  <circle cx="150" cy="172" r="7" fill="#fb4d8c" opacity=".45"/>

  <!-- offenes Lachen -->
  <path d="M100 178 Q120 204 140 178 Q120 190 100 178 Z" fill="#0d0d12"/>

  <!-- Daumen-hoch-Arm -->
  <path d="M180 158 C 194 146 199 130 195 114" stroke="#e02970" stroke-width="17" stroke-linecap="round" fill="none"/>
  <path d="M195 112 l11 -13" stroke="#e02970" stroke-width="11" stroke-linecap="round" fill="none"/>

  <ellipse cx="100" cy="254" rx="17" ry="9" fill="#0d0d12"/>
  <ellipse cx="140" cy="254" rx="17" ry="9" fill="#0d0d12"/>
</svg>
