<svg xmlns="http://www.w3.org/2000/svg" width="240" height="280" viewBox="0 0 240 280">
  <defs>
    <linearGradient id="bodyG3" x1="0" y1="0" x2="0.4" y2="1">
      <stop offset="0" stop-color="#ff6ba3"/>
      <stop offset="1" stop-color="#e02970"/>
    </linearGradient>
    <linearGradient id="innerG3" x1="0" y1="0" x2="0" y2="1">
      <stop offset="0" stop-color="#ffd2e3"/>
      <stop offset="1" stop-color="#ff9cc2"/>
    </linearGradient>
    <linearGradient id="panelG3" x1="0" y1="0" x2="1" y2="1">
      <stop offset="0" stop-color="#1b3a5f"/>
      <stop offset="1" stop-color="#0f2742"/>
    </linearGradient>
  </defs>

  <ellipse cx="120" cy="262" rx="62" ry="10" fill="#0d0d12" opacity=".08"/>

  <!-- winkender Arm -->
  <path d="M64 154 C 46 142 38 124 44 104" stroke="#e02970" stroke-width="17" stroke-linecap="round" fill="none"/>

  <!-- Flammenkörper -->
  <path d="M120 24
           C 127 50 146 64 160 86
           C 175 110 187 134 187 164
           C 187 216 157 252 120 252
           C 83 252 53 216 53 164
           C 53 134 65 110 80 86
           C 94 64 113 50 120 24 Z"
        fill="url(#bodyG3)"/>
  <path d="M158 60 C 166 70 176 74 178 88 C 170 84 162 78 158 60 Z" fill="#ff6ba3"/>

  <path d="M120 84
           C 134 106 156 124 156 162
           C 156 198 140 224 120 224
           C 100 224 84 198 84 162
           C 84 124 106 106 120 84 Z"
        fill="url(#innerG3)"/>

  <!-- Sonnenbrille -->
  <rect x="88" y="140" width="29" height="19" rx="9" fill="#0d0d12"/>
  <rect x="123" y="140" width="29" height="19" rx="9" fill="#0d0d12"/>
  <path d="M117 148 h6" stroke="#0d0d12" stroke-width="4"/>
  <path d="M88 147 h-8 M152 147 h8" stroke="#0d0d12" stroke-width="4" stroke-linecap="round"/>
  <path d="M94 145 q6 -3 10 0" stroke="#ffffff" stroke-width="2.5" stroke-linecap="round" fill="none" opacity=".7"/>
  <path d="M129 145 q6 -3 10 0" stroke="#ffffff" stroke-width="2.5" stroke-linecap="round" fill="none" opacity=".7"/>

  <circle cx="90" cy="174" r="7" fill="#fb4d8c" opacity=".45"/>
  <circle cx="150" cy="174" r="7" fill="#fb4d8c" opacity=".45"/>

  <path d="M102 182 Q120 198 138 182" stroke="#0d0d12" stroke-width="5" stroke-linecap="round" fill="none"/>

  <!-- rechter Arm hält Mini-Solarmodul -->
  <path d="M178 160 C 190 170 196 182 194 194" stroke="#e02970" stroke-width="17" stroke-linecap="round" fill="none"/>
  <g transform="rotate(-14 186 212)">
    <rect x="156" y="196" width="62" height="36" rx="5" fill="url(#panelG3)" stroke="#3f6ea3" stroke-width="2"/>
    <path d="M176 196 v36 M198 196 v36 M156 214 h62" stroke="#3f6ea3" stroke-width="1.6"/>
    <path d="M160 200 l14 10" stroke="#8fd8ff" stroke-width="3" stroke-linecap="round" opacity=".7"/>
  </g>

  <ellipse cx="100" cy="254" rx="17" ry="9" fill="#0d0d12"/>
  <ellipse cx="140" cy="254" rx="17" ry="9" fill="#0d0d12"/>
</svg>
